<?xml version="1.0" standalone="no"?>
<!DOCTYPE svg PUBLIC "-//W3C//DTD SVG 20010904//EN"
 "http://www.w3.org/TR/2001/REC-SVG-20010904/DTD/svg10.dtd">
<svg version="1.0" xmlns="http://www.w3.org/2000/svg"
 width="16.000000pt" height="16.000000pt" viewBox="0 0 16.000000 16.000000"
 preserveAspectRatio="xMidYMid meet">
<metadata>
Created by potrace 1.11, written by Peter Selinger 2001-2013
</metadata>
<g transform="translate(0.000000,16.000000) scale(0.003125,-0.003125)"
fill="#000000" stroke="none">
<path d="M2489 4607 c-1 -1 -2 -13 -4 -27 -1 -14 -5 -43 -8 -65 -4 -22 -9 -62
-12 -90 -4 -27 -8 -57 -10 -65 -2 -8 -7 -42 -10 -75 -4 -33 -10 -85 -15 -115
-9 -55 -36 -240 -46 -315 -3 -22 -9 -65 -14 -95 -5 -30 -12 -73 -15 -95 -3
-22 -7 -47 -10 -55 -2 -8 -6 -37 -10 -65 -3 -27 -8 -57 -10 -65 -3 -8 -6 -31
-9 -50 -2 -19 -14 -87 -25 -150 -11 -63 -27 -155 -36 -205 -8 -49 -17 -97 -20
-105 -2 -8 -7 -35 -10 -60 -4 -24 -8 -47 -10 -50 -2 -3 -6 -24 -9 -46 -4 -23
-11 -55 -16 -73 -10 -35 -10 -36 -10 -52 0 -7 -27 -8 -87 -3 -109 10 -464 11
-518 2 -22 -4 -53 -9 -70 -12 -117 -20 -282 -84 -399 -154 -86 -51 -238 -192
-278 -257 -129 -208 -184 -408 -158 -566 26 -156 149 -278 339 -339 53 -17
207 -50 232 -50 4 0 -3 25 -17 56 -71 161 -41 343 80 489 67 81 125 128 228
184 126 69 236 98 407 105 120 6 119 6 101 -48 -5 -17 -26 -85 -45 -151 -20
-66 -40 -129 -44 -140 -5 -11 -19 -47 -31 -80 -57 -148 -103 -229 -170 -296
-73 -74 -127 -106 -238 -145 -67 -23 -94 -27 -202 -28 -69 -1 -144 2 -167 6
-72 12 -185 49 -253 83 -68 34 -181 115 -203 144 -34 47 -38 36 -33 -101 3
-73 7 -144 10 -158 3 -14 9 -41 12 -60 11 -65 46 -165 88 -245 48 -94 150
-203 236 -252 48 -28 172 -79 193 -81 9 0 85 -13 112 -18 43 -9 234 -4 281 6
27 7 56 13 64 15 34 7 138 50 190 78 191 104 374 316 479 553 23 51 41 97 41
103 0 6 4 19 10 29 23 41 122 369 181 602 17 69 35 129 39 133 4 4 36 3 71 -2
35 -6 82 -13 104 -16 40 -6 161 -27 263 -45 28 -6 76 -14 105 -20 28 -5 63
-12 77 -14 14 -3 50 -11 80 -17 111 -22 467 -100 525 -116 33 -8 69 -17 80
-19 11 -2 92 -22 180 -44 88 -22 167 -42 175 -44 8 -2 50 -13 93 -24 57 -15
79 -17 82 -9 32 88 52 319 34 395 -18 82 -53 110 -204 160 -140 48 -535 152
-627 167 -15 2 -44 8 -65 14 -109 29 -538 108 -763 142 -47 7 -88 15 -92 18
-4 3 2 49 13 101 51 247 153 841 173 1015 4 28 8 61 11 75 2 14 7 48 10 75 3
28 8 61 10 75 24 155 36 402 22 445 -26 81 -143 143 -337 180 -47 9 -93 18
-102 20 -10 2 -18 2 -19 2z"/>
</g>
</svg>
